# xmcd
#
# Track frame offsets: 
#        150
#        20595
#        40845
#        59475
#        77250
#        94950
#        113415
#        132990
#        152859
#        170641
#
# Disc length: 2518 seconds
#
# Revision: 0
# Processed by: cddbd v1.5.2PL0 Copyright (c) Steve Scherf et al.
# Submitted via: ExactAudioCopyFreeDBPlugin 1.0
#
DISCID=7a09d40a
DTITLE=Libero - Dibalik Rock
DYEAR=2005
DGENRE=Rock
TTITLE0=Dia Tak Tahu
TTITLE1=Demi Waktu
TTITLE2=Senggigi
TTITLE3=Namaku Cinta
TTITLE4=Puncak Tangga
TTITLE5=Headphones
TTITLE6=Larung
TTITLE7=Definitely Not A Ballad
TTITLE8=Dahaga
TTITLE9=Kota Mati
EXTD=
EXTT0=
EXTT1=
EXTT2=
EXTT3=
EXTT4=
EXTT5=
EXTT6=
EXTT7=
EXTT8=
EXTT9=
PLAYORDER=
